<svg width="40" height="40" viewBox="0 0 40 40" fill="none" xmlns="http://www.w3.org/2000/svg">
    <!-- 背景圆环 -->
    <circle cx="20" cy="20" r="16" fill="url(#ring_gradient)"/>
    <!-- 齿轮外圈 -->
    <path d="M20 8C13.4 8 8 13.4 8 20C8 26.6 13.4 32 20 32C26.6 32 32 26.6 32 20C32 13.4 26.6 8 20 8Z" 
          fill="url(#gear_gradient)"/>
    <!-- 齿轮内圈 -->
    <circle cx="20" cy="20" r="6" fill="url(#inner_gear_gradient)" 
            stroke="#FFFFFF" stroke-width="2"/>
    <!-- 装饰线条 -->
    <path d="M20 14V17" stroke="#FFFFFF" stroke-width="2" stroke-linecap="round"/>
    <path d="M20 23V26" stroke="#FFFFFF" stroke-width="2" stroke-linecap="round"/>
    <path d="M26 20H23" stroke="#FFFFFF" stroke-width="2" stroke-linecap="round"/>
    <path d="M17 20H14" stroke="#FFFFFF" stroke-width="2" stroke-linecap="round"/>
    <!-- 中心点 -->
    <circle cx="20" cy="20" r="2" fill="#FFFFFF"/>
    <defs>
        <linearGradient id="ring_gradient" x1="20" y1="4" x2="20" y2="36">
            <stop offset="0%" stop-color="#7C4DFF"/>
            <stop offset="100%" stop-color="#512DA8"/>
        </linearGradient>
        <linearGradient id="gear_gradient" x1="20" y1="8" x2="20" y2="32">
            <stop offset="0%" stop-color="#9575CD"/>
            <stop offset="100%" stop-color="#7C4DFF"/>
        </linearGradient>
        <linearGradient id="inner_gear_gradient" x1="20" y1="14" x2="20" y2="26">
            <stop offset="0%" stop-color="#B39DDB"/>
            <stop offset="100%" stop-color="#9575CD"/>
        </linearGradient>
    </defs>
</svg> 