<svg width="40" height="40" viewBox="0 0 40 40" fill="none" xmlns="http://www.w3.org/2000/svg">
    <!-- 背景圆形 -->
    <circle cx="20" cy="20" r="16" fill="url(#circle_gradient)"/>
    <!-- 火焰形状 -->
    <path d="M20 8C16 8 13 11 13 15C13 19 15 21 17 23C19 25 20 26 20 28C20 26 21 25 23 23C25 21 27 19 27 15C27 11 24 8 20 8Z"
          fill="url(#flame_gradient)"/>
    <!-- 内部光晕 -->
    <path d="M20 12C18 12 16 14 16 17C16 20 19 22 20 24C21 22 24 20 24 17C24 14 22 12 20 12Z"
          fill="url(#glow_gradient)"/>
    <!-- 装饰星星 -->
    <circle cx="18" cy="14" r="1" fill="#FFFFFF" opacity="0.8"/>
    <circle cx="22" cy="16" r="0.8" fill="#FFFFFF" opacity="0.6"/>
    <!-- 渐变定义 -->
    <defs>
        <linearGradient id="circle_gradient" x1="20" y1="4" x2="20" y2="36">
            <stop offset="0%" stop-color="#FF6B6B"/>
            <stop offset="100%" stop-color="#FF4141"/>
        </linearGradient>
        <linearGradient id="flame_gradient" x1="20" y1="8" x2="20" y2="28">
            <stop offset="0%" stop-color="#FFD700"/>
            <stop offset="100%" stop-color="#FFA500"/>
        </linearGradient>
        <linearGradient id="glow_gradient" x1="20" y1="12" x2="20" y2="24">
            <stop offset="0%" stop-color="#FFFFFF"/>
            <stop offset="100%" stop-color="#FFD700"/>
        </linearGradient>
    </defs>
</svg> 