<svg width="50" height="50" viewBox="0 0 50 50" fill="none" xmlns="http://www.w3.org/2000/svg">
    <!-- 背景圆形 -->
    <circle cx="25" cy="25" r="20" fill="url(#cert_bg)"/>
    <!-- 证书主体 -->
    <rect x="15" y="15" width="20" height="25" rx="2" fill="url(#paper_gradient)"/>
    <!-- 安全帽 -->
    <path d="M20 20C20 18 22 16 25 16C28 16 30 18 30 20C30 22 28 23 25 23C22 23 20 22 20 20Z" 
          fill="url(#helmet_gradient)"/>
    <path d="M19 20H31" stroke="#FFFFFF" stroke-width="1"/>
    <!-- 文本线条 -->
    <path d="M18 26H27" stroke="#666" stroke-width="1"/>
    <path d="M18 29H32" stroke="#666" stroke-width="1"/>
    <path d="M18 32H25" stroke="#666" stroke-width="1"/>
    <!-- 印章效果 -->
    <circle cx="30" cy="33" r="3" fill="url(#stamp_gradient)" opacity="0.8"/>
    <defs>
        <linearGradient id="cert_bg" x1="25" y1="5" x2="25" y2="45">
            <stop offset="0%" stop-color="#4CAF50"/>
            <stop offset="100%" stop-color="#388E3C"/>
        </linearGradient>
        <linearGradient id="paper_gradient" x1="25" y1="15" x2="25" y2="40">
            <stop offset="0%" stop-color="#FFFFFF"/>
            <stop offset="100%" stop-color="#F5F5F5"/>
        </linearGradient>
        <linearGradient id="helmet_gradient" x1="25" y1="16" x2="25" y2="23">
            <stop offset="0%" stop-color="#FDD835"/>
            <stop offset="100%" stop-color="#FBC02D"/>
        </linearGradient>
        <linearGradient id="stamp_gradient" x1="30" y1="30" x2="30" y2="36">
            <stop offset="0%" stop-color="#EF5350"/>
            <stop offset="100%" stop-color="#E53935"/>
        </linearGradient>
    </defs>
</svg> 