<svg width="30" height="30" viewBox="0 0 30 30" fill="none" xmlns="http://www.w3.org/2000/svg">
    <path d="M15 3C10.5 3 6.75 6.75 6.75 11.25C6.75 14.25 8.25 16.875 10.5 18.375V21C10.5 21.75 11.25 22.5 12 22.5H18C18.75 22.5 19.5 21.75 19.5 21V18.375C21.75 16.875 23.25 14.25 23.25 11.25C23.25 6.75 19.5 3 15 3ZM17.25 17.25L16.5 17.625V20.25H13.5V17.625L12.75 17.25C10.875 16.125 9.75 13.875 9.75 11.25C9.75 8.25 12 5.25 15 5.25C18 5.25 20.25 8.25 20.25 11.25C20.25 13.875 19.125 16.125 17.25 17.25Z" fill="white"/>
    <path d="M12 24V25.5H18V24H12Z" fill="white"/>
</svg> 