<svg width="40" height="40" viewBox="0 0 40 40" fill="none" xmlns="http://www.w3.org/2000/svg">
    <!-- 背景圆形 -->
    <circle cx="20" cy="20" r="16" fill="url(#bg_gradient2)"/>
    <!-- 火箭主体 -->
    <path d="M20 8L16 28L20 26L24 28L20 8Z" fill="url(#rocket_gradient)"/>
    <!-- 火箭翼 -->
    <path d="M16 28L12 24L16 26L20 26L24 26L28 24L24 28L20 30L16 28Z" 
          fill="url(#wing_gradient)"/>
    <!-- 火焰效果 -->
    <path d="M18 28L20 34L22 28" fill="url(#flame_gradient)"/>
    <!-- 窗口 -->
    <circle cx="20" cy="18" r="2" fill="#FFFFFF"/>
    <!-- 星星装饰 -->
    <circle cx="15" cy="14" r="1" fill="#FFFFFF" opacity="0.8"/>
    <circle cx="25" cy="16" r="1" fill="#FFFFFF" opacity="0.8"/>
    <defs>
        <linearGradient id="bg_gradient2" x1="20" y1="4" x2="20" y2="36">
            <stop offset="0%" stop-color="#6C5CE7"/>
            <stop offset="100%" stop-color="#4834D4"/>
        </linearGradient>
        <linearGradient id="rocket_gradient" x1="20" y1="8" x2="20" y2="28">
            <stop offset="0%" stop-color="#FF6B6B"/>
            <stop offset="100%" stop-color="#EE5253"/>
        </linearGradient>
        <linearGradient id="wing_gradient" x1="20" y1="24" x2="20" y2="30">
            <stop offset="0%" stop-color="#FF6B6B"/>
            <stop offset="100%" stop-color="#EE5253"/>
        </linearGradient>
        <linearGradient id="flame_gradient" x1="20" y1="28" x2="20" y2="34">
            <stop offset="0%" stop-color="#FFD700"/>
            <stop offset="100%" stop-color="#FFA500"/>
        </linearGradient>
    </defs>
</svg> 