<svg width="60" height="60" viewBox="0 0 60 60" fill="none" xmlns="http://www.w3.org/2000/svg">
    <!-- 背景圆形 -->
    <circle cx="30" cy="30" r="25" fill="url(#innovation_bg)"/>
    <!-- 灯泡主体 -->
    <path d="M30 10C24 10 19 15 19 21C19 25 21 28 23 30C25 32 26 33 26 35H34C34 33 35 32 37 30C39 28 41 25 41 21C41 15 36 10 30 10Z" 
          fill="url(#bulb_gradient)"/>
    <!-- 灯泡底座 -->
    <path d="M26 37H34" stroke="#FFD700" stroke-width="2"/>
    <path d="M27 39H33" stroke="#FFD700" stroke-width="2"/>
    <!-- 光效 -->
    <circle cx="30" cy="19" r="4" fill="url(#glow_gradient)"/>
    <circle cx="26" cy="17" r="1" fill="#FFFFFF" opacity="0.8"/>
    <defs>
        <linearGradient id="innovation_bg" x1="30" y1="5" x2="30" y2="55">
            <stop offset="0%" stop-color="#FFB900"/>
            <stop offset="100%" stop-color="#FF8F00"/>
        </linearGradient>
        <linearGradient id="bulb_gradient" x1="30" y1="10" x2="30" y2="35">
            <stop offset="0%" stop-color="#FFD700"/>
            <stop offset="100%" stop-color="#FFC107"/>
        </linearGradient>
        <linearGradient id="glow_gradient" x1="30" y1="15" x2="30" y2="23">
            <stop offset="0%" stop-color="#FFFFFF"/>
            <stop offset="100%" stop-color="#FFE082"/>
        </linearGradient>
    </defs>
</svg> 