<svg width="60" height="60" viewBox="0 0 60 60" fill="none" xmlns="http://www.w3.org/2000/svg">
    <!-- 背景圆形 -->
    <circle cx="30" cy="30" r="25" fill="url(#professional_bg)"/>
    <!-- 齿轮主体 -->
    <path d="M30 15L27 16L25 20L22 21L18 19L15 22L17 26L16 29L12 31L13 35L17 36L19 39L18 43L21 45L25 43L28 44L31 48L35 47L36 43L39 41L43 42L45 39L43 35L44 32L48 29L47 25L43 24L41 21L42 17L39 15L35 17L32 16L29 12L25 13L24 17L21 19L17 18L15 21L17 25L16 28L12 30L13 34L17 35L19 38L18 42L21 44L25 42L28 43L31 47L35 46L36 42L39 40L43 41L45 38L43 34L44 31L48 28L47 24L43 23L41 20L42 16L39 14L35 16L32 15L29 11Z" 
          fill="url(#gear_gradient)"/>
    <!-- 内圈 -->
    <circle cx="30" cy="30" r="8" fill="url(#inner_gradient)" stroke="#FFFFFF" stroke-width="2"/>
    <!-- 装饰 -->
    <circle cx="30" cy="30" r="3" fill="#FFFFFF"/>
    <defs>
        <linearGradient id="professional_bg" x1="30" y1="5" x2="30" y2="55">
            <stop offset="0%" stop-color="#7C4DFF"/>
            <stop offset="100%" stop-color="#512DA8"/>
        </linearGradient>
        <linearGradient id="gear_gradient" x1="30" y1="11" x2="30" y2="48">
            <stop offset="0%" stop-color="#9575CD"/>
            <stop offset="100%" stop-color="#7E57C2"/>
        </linearGradient>
        <linearGradient id="inner_gradient" x1="30" y1="22" x2="30" y2="38">
            <stop offset="0%" stop-color="#B39DDB"/>
            <stop offset="100%" stop-color="#9575CD"/>
        </linearGradient>
    </defs>
</svg> 