<svg width="60" height="60" viewBox="0 0 60 60" fill="none" xmlns="http://www.w3.org/2000/svg">
    <!-- 背景圆形 -->
    <circle cx="30" cy="30" r="25" fill="url(#safety_bg)"/>
    <!-- 盾牌主体 -->
    <path d="M30 10L15 17V26C15 34.3 21.5 41.7 30 44C38.5 41.7 45 34.3 45 26V17L30 10Z" 
          fill="url(#safety_shield)"/>
    <!-- 锁头 -->
    <rect x="25" y="25" width="10" height="12" rx="2" fill="url(#lock_gradient)"/>
    <path d="M27 25V22C27 20.3431 28.3431 19 30 19V19C31.6569 19 33 20.3431 33 22V25" 
          stroke="#FFFFFF" stroke-width="2"/>
    <!-- 光效 -->
    <circle cx="30" cy="31" r="2" fill="#FFFFFF"/>
    <defs>
        <linearGradient id="safety_bg" x1="30" y1="5" x2="30" y2="55">
            <stop offset="0%" stop-color="#43A047"/>
            <stop offset="100%" stop-color="#2E7D32"/>
        </linearGradient>
        <linearGradient id="safety_shield" x1="30" y1="10" x2="30" y2="44">
            <stop offset="0%" stop-color="#66BB6A"/>
            <stop offset="100%" stop-color="#4CAF50"/>
        </linearGradient>
        <linearGradient id="lock_gradient" x1="30" y1="25" x2="30" y2="37">
            <stop offset="0%" stop-color="#81C784"/>
            <stop offset="100%" stop-color="#66BB6A"/>
        </linearGradient>
    </defs>
</svg> 